PathFileType	4	(X/Y/Z)	 s05c0401.trc
DataRate	CameraRate	NumFrames	NumMarkers	Units	OrigDataRate	OrigDataStartFrame	OrigNumFrames
200	200	4	50	mm	200	251	2000
Frame#	Time	racr			lacr			c7			jug			rlel			rdr			llel			ldr			s2			lic			ric			lasi			rasi			rpsi			lpsi			rgt			lgt			rth1			rth2			rth3			rth4			rlfc			rmfc			rsh1			rsh2			rsh3			rsh4			rlmal			rmmal			rcal			rtoe			rmt5			lth1			lth2			lth4			lth3			llfc			lmfc			lsh1			lsh2			lsh3			lsh4			llmal			lmmal			lcal			ltoe			lmt5			SBIKE			LBIKE			RBIKE			
		X1	Y1	Z1	X2	Y2	Z2	X3	Y3	Z3	X4	Y4	Z4	X5	Y5	Z5	X6	Y6	Z6	X7	Y7	Z7	X8	Y8	Z8	X9	Y9	Z9	X10	Y10	Z10	X11	Y11	Z11	X12	Y12	Z12	X13	Y13	Z13	X14	Y14	Z14	X15	Y15	Z15	X16	Y16	Z16	X17	Y17	Z17	X18	Y18	Z18	X19	Y19	Z19	X20	Y20	Z20	X21	Y21	Z21	X22	Y22	Z22	X23	Y23	Z23	X24	Y24	Z24	X25	Y25	Z25	X26	Y26	Z26	X27	Y27	Z27	X28	Y28	Z28	X29	Y29	Z29	X30	Y30	Z30	X31	Y31	Z31	X32	Y32	Z32	X33	Y33	Z33	X34	Y34	Z34	X35	Y35	Z35	X36	Y36	Z36	X37	Y37	Z37	X38	Y38	Z38	X39	Y39	Z39	X40	Y40	Z40	X41	Y41	Z41	X42	Y42	Z42	X43	Y43	Z43	X44	Y44	Z44	X45	Y45	Z45	X46	Y46	Z46	X47	Y47	Z47	X48	Y48	Z48	X49	Y49	Z49	X50	Y50	Z50	
251	1.2550	402.466159	1407.395082	-121.619145	410.822395	1427.035568	-415.823892	381.985886	1495.084485	-272.300798	377.658372	1336.262808	-272.533893	500.518495	1163.107937	-26.936686	686.971525	970.817032	-46.288517	491.173200	1165.843519	-511.070543	691.465864	975.137342	-483.558851	-105.364776	1157.086710	-263.493745	42.870453	1179.538848	-404.633815	40.218434	1194.904557	-125.075690	94.333700	1128.504512	-374.056660	83.082854	1134.655887	-151.415414	-77.858710	1205.480788	-224.777400	-74.574926	1208.109148	-312.328043	6.295888	1064.149889	-91.839542	-20.724301	1069.904866	-432.268498	106.136019	1009.296417	-77.248887	194.444043	995.942565	-74.541608	262.221389	940.213171	-76.663666	208.825875	1028.859983	-85.909024	400.882705	865.440416	-103.279415	389.984389	860.752364	-213.301380	336.233181	772.768971	-82.741091	327.722836	684.742303	-93.355134	279.884924	614.114526	-98.869982	357.749522	677.220708	-116.604028	241.317666	485.414388	-111.337754	255.666057	509.420299	-191.360330	169.333060	456.318345	-158.408295	461.880018	420.725749	-145.283058	358.478363	401.084618	-82.678453	63.294468	956.092850	-452.563205	134.705430	907.819708	-453.565917	162.570976	928.800593	-438.806811	171.576318	824.772889	-454.052363	246.347322	693.317373	-428.731027	233.667290	682.893121	-319.051466	149.427313	609.193691	-451.115917	111.041082	531.165932	-439.988632	36.757571	482.344863	-437.840344	135.888242	512.539319	-417.168722	-37.955735	382.486427	-429.571629	-7.530193	395.804712	-351.911709	-110.038281	363.989694	-386.283804	159.379594	247.655867	-396.572170	48.639277	259.795430	-458.701972	-215.384540	915.567376	-268.529734	-43.542623	84.789826	-475.248527	-51.921839	80.110259	-77.559204	
252	1.2600	402.558251	1407.413436	-121.632003	410.871847	1426.997544	-415.751606	382.056856	1495.043330	-272.253268	377.752412	1336.168920	-272.496346	500.545317	1163.119681	-26.799343	686.982435	970.794163	-46.411555	491.144079	1165.772818	-511.106362	691.435508	975.114531	-483.490135	-105.348859	1157.095773	-263.473698	42.955492	1179.542306	-404.613035	40.215843	1194.911410	-125.032012	94.366048	1128.493401	-374.005319	83.073709	1134.669991	-151.373793	-77.836721	1205.495948	-224.762932	-74.535044	1208.128625	-312.335250	6.312518	1064.157118	-91.825943	-20.687943	1069.926905	-432.264751	106.169997	1009.354190	-77.243608	194.474542	995.996636	-74.556463	262.254948	940.281259	-76.709862	208.848523	1028.928753	-85.936318	400.945342	865.605610	-103.307400	390.007793	860.800768	-213.324485	336.267169	772.875188	-82.774674	327.789252	684.793288	-93.360015	279.947784	614.171554	-98.880869	357.795373	677.258640	-116.635284	241.384315	485.457590	-111.343478	255.745903	509.470133	-191.354474	169.381048	456.392008	-158.385669	461.910933	420.680731	-145.272996	358.514324	401.087552	-82.672453	63.337179	956.115545	-452.572052	134.716418	907.828207	-453.567899	162.584798	928.800583	-438.839136	171.562408	824.754330	-454.058066	246.339491	693.310251	-428.748217	233.674691	682.876354	-319.069420	149.406879	609.187557	-451.135237	111.021470	531.151458	-440.011660	36.751397	482.344137	-437.855941	135.876433	512.548193	-417.195088	-37.984497	382.476062	-429.561985	-7.555636	395.795796	-351.913930	-110.053693	363.983532	-386.285629	159.376518	247.674832	-396.569542	48.633395	259.796786	-458.717162	-215.371336	915.559999	-268.515712	-43.532735	84.790296	-475.230473	-51.901036	80.075172	-77.582296	
253	1.2650	402.637323	1407.431194	-121.611264	410.916983	1426.961345	-415.695396	382.139167	1495.016424	-272.241344	377.801621	1336.085278	-272.464685	500.553336	1163.126438	-26.655862	686.951407	970.768486	-46.558212	491.135032	1165.763868	-511.098598	691.411824	975.098880	-483.412810	-105.326371	1157.119733	-263.482258	42.985039	1179.505711	-404.557923	40.213707	1194.921266	-125.029573	94.414662	1128.487453	-373.957988	83.079747	1134.675443	-151.329955	-77.825024	1205.514525	-224.749762	-74.515491	1208.130881	-312.267637	6.303991	1064.192251	-91.788032	-20.659716	1069.950837	-432.252664	106.187300	1009.411662	-77.228806	194.494204	996.055167	-74.568440	262.299499	940.323628	-76.743825	208.885456	1028.972706	-85.976601	400.988663	865.661441	-103.366987	390.027103	860.845798	-213.384590	336.313610	772.904480	-82.799299	327.816819	684.824440	-93.398178	280.000003	614.244226	-98.878692	357.851366	677.309469	-116.660644	241.415270	485.529341	-111.331633	255.797095	509.498602	-191.352976	169.408510	456.464939	-158.392833	461.931109	420.644811	-145.267346	358.541233	401.086566	-82.685261	63.331111	956.135491	-452.572335	134.726358	907.811110	-453.571950	162.608148	928.806302	-438.850018	171.550307	824.780180	-454.097911	246.335771	693.284009	-428.778855	233.673599	682.885086	-319.097891	149.392058	609.180192	-451.147704	111.018689	531.156330	-440.039304	36.729453	482.351829	-437.864097	135.862343	512.532951	-417.210997	-37.979399	382.465152	-429.563211	-7.555589	395.795795	-351.913783	-110.057032	363.967729	-386.290836	159.376996	247.672949	-396.584523	48.634469	259.801037	-458.715986	-215.374699	915.567328	-268.529257	-43.537308	84.783418	-475.231738	-51.894069	80.085324	-77.578977	
254	1.2700	402.716179	1407.454521	-121.629310	410.954485	1426.935377	-415.652731	382.209341	1495.002685	-272.234426	377.890256	1336.042268	-272.422089	500.544458	1163.120930	-26.531465	686.903491	970.714174	-46.710758	491.155385	1165.750956	-511.065780	691.408717	975.086163	-483.406099	-105.315255	1157.120536	-263.474665	43.040593	1179.499534	-404.518725	40.219621	1194.950330	-124.987893	94.454119	1128.456585	-373.883706	83.091136	1134.694938	-151.279559	-77.805860	1205.526847	-224.742845	-74.483462	1208.144703	-312.335384	6.322578	1064.218258	-91.791743	-20.636343	1069.957853	-432.232990	106.248121	1009.477006	-77.218366	194.547679	996.136440	-74.609175	262.371973	940.415759	-76.766134	208.934117	1029.041585	-86.017042	401.016191	865.740991	-103.412112	390.050331	860.876854	-213.391330	336.361982	772.943632	-82.837633	327.860413	684.879914	-93.432304	280.027968	614.266781	-98.899227	357.880587	677.361519	-116.681272	241.484988	485.581573	-111.346125	255.878178	509.512363	-191.254892	169.492277	456.469683	-158.801663	461.958169	420.614736	-145.268640	358.570019	401.093052	-82.682008	63.354261	956.136593	-452.560238	134.728050	907.829221	-453.576572	162.624027	928.816868	-438.864082	171.568875	824.773029	-454.090973	246.332576	693.313125	-428.799912	233.689965	682.868637	-319.118835	149.380227	609.186312	-451.163940	111.006362	531.164350	-440.060227	36.731692	482.340314	-437.865617	135.855356	512.539066	-417.226759	-37.986614	382.477160	-429.564465	-7.533552	395.804642	-351.920790	-110.055324	363.957330	-386.291802	159.383197	247.676197	-396.570482	48.626013	259.796671	-458.710101	-215.371665	915.565662	-268.511357	-43.542163	84.801515	-475.229235	-51.899850	80.065781	-77.588631	
